HIERARCHY
ROOT hip
{
	OFFSET 0.000000 0.000000 0.000000 
	CHANNELS 6 Xposition Yposition Zposition Xrotation Zrotation Yrotation
	JOINT abdomen
	{
		OFFSET 0.000000 3.402643 0.000000 
		CHANNELS 3 Xrotation Zrotation Yrotation
		JOINT chest
		{
			OFFSET 0.000000 8.438565 -0.680529 
			CHANNELS 3 Xrotation Zrotation Yrotation
			JOINT neck
			{
				OFFSET 0.000000 10.207942 -0.272212 
				CHANNELS 3 Xrotation Zrotation Yrotation
				JOINT head
				{
					OFFSET 0.000000 3.130431 0.000000 
					CHANNELS 3 Xrotation Zrotation Yrotation
					End Site
					{
						OFFSET 0.000000 3.130435 0.000000 
					}
				}
			}
			JOINT lCollar
			{
				OFFSET 3.470700 6.669187 -0.816635 
				CHANNELS 3 Yrotation Zrotation Xrotation
				JOINT lShldr
				{
					OFFSET 3.198488 0.000000 0.000000 
					CHANNELS 3 Zrotation Yrotation Xrotation
					JOINT lForeArm
					{
						OFFSET 10.139888 0.000000 0.000000 
						CHANNELS 3 Yrotation Zrotation Xrotation
						JOINT lHand
						{
							OFFSET 8.370511 0.000000 0.000000 
							CHANNELS 3 Zrotation Yrotation Xrotation
							End Site
							{
								OFFSET 4.083176 0.000000 0.000000 
							}
						}
					}
				}
			}
			JOINT rCollar
			{
				OFFSET -3.470700 6.669187 -0.816635 
				CHANNELS 3 Yrotation Zrotation Xrotation
				JOINT rShldr
				{
					OFFSET -3.198488 0.000000 0.000000 
					CHANNELS 3 Zrotation Yrotation Xrotation
					JOINT rForeArm
					{
						OFFSET -10.139888 0.000000 0.000000 
						CHANNELS 3 Yrotation Zrotation Xrotation
						JOINT rHand
						{
							OFFSET -8.370511 0.000000 0.000000 
							CHANNELS 3 Zrotation Yrotation Xrotation
							End Site
							{
								OFFSET -4.083176 0.000000 0.000000 
							}
						}
					}
				}
			}
		}
	}
	JOINT lThigh
	{
		OFFSET 5.308129 -1.633274 1.361059 
		CHANNELS 3 Xrotation Zrotation Yrotation
		JOINT lShin
		{
			OFFSET -2.041588 -20.007561 0.000000 
			CHANNELS 3 Xrotation Zrotation Yrotation
			JOINT lFoot
			{
				OFFSET 0.000000 -19.190928 -1.224953 
				CHANNELS 3 Xrotation Yrotation Zrotation
				End Site
				{
					OFFSET 0.000000 -2.449906 4.627600 
				}
			}
		}
	}
	JOINT rThigh
	{
		OFFSET -5.308129 -1.633274 1.361059 
		CHANNELS 3 Xrotation Zrotation Yrotation
		JOINT rShin
		{
			OFFSET 2.041588 -20.007561 0.000000 
			CHANNELS 3 Xrotation Zrotation Yrotation
			JOINT rFoot
			{
				OFFSET 0.000000 -19.190928 -1.224953 
				CHANNELS 3 Xrotation Yrotation Zrotation
				End Site
				{
					OFFSET 0.000000 -2.449906 4.627600 
				}
			}
		}
	}
}
MOTION
Frames: 20
Frame Time: 0.016667
0.647492 53.264977 0.275916 -8.802785 2.965662 7.060490 23.259790 -0.938442 -1.830039 4.450533 1.259077 -2.842198 -1.489279 8.100871 -0.574778 6.889629 -5.824966 7.793903 -15.852094 -11.488240 -0.608545 -63.501163 15.667747 -27.992355 -27.620024 -5.000000 25.362791 -16.210224 0.814442 12.591492 13.964802 16.571590 -0.878598 58.191730 -14.478323 -26.494455 29.522291 5.000000 24.790575 11.392445 -30.000000 2.357376 14.711101 11.217846 4.347065 6.589557 -5.771321 -0.926299 -12.386819 2.103412 -4.039256 21.617340 -8.426977 -5.679617 -2.565162 2.349594 -0.085036 -7.271424 -22.349722 5.704298 
0.643720 53.263756 0.280852 -8.833283 2.955971 7.060489 23.279339 -0.945276 -1.811911 4.440554 1.259070 -2.881258 -1.498947 8.091215 -0.573318 6.881534 -5.805480 7.803621 -15.813138 -11.497998 -0.609050 -63.484936 15.689997 -27.991196 -27.648916 -5.000000 25.323404 -16.214697 0.853982 12.651599 13.964802 16.571590 -0.878598 58.178261 -14.464169 -26.481256 29.500090 5.000000 24.839479 11.410340 -30.000000 2.289970 14.761991 11.248821 4.344420 6.574759 -5.788517 -0.916423 -12.395239 2.142122 -4.030402 21.654760 -8.406656 -5.614742 -2.580972 2.317029 -0.094566 -7.263993 -22.402184 5.713995 
0.642383 53.263126 0.283935 -8.843749 2.946218 7.070240 23.289104 -0.945276 -1.811911 4.430573 1.259063 -2.900787 -1.508810 8.100871 -0.574778 6.889629 -5.824966 7.793903 -15.813138 -11.497998 -0.609050 -63.489742 15.698693 -28.010704 -27.660620 -5.000000 25.312670 -16.212502 0.865867 12.658282 13.974725 16.581345 -0.881889 58.166607 -14.463412 -26.470896 29.485643 5.000000 24.858309 11.383211 -30.000000 2.269181 14.756897 11.254984 4.326509 6.587217 -5.788904 -0.927017 -12.395047 2.151267 -4.014883 21.688503 -8.398490 -5.582234 -2.610250 2.327633 -0.106478 -7.255681 -22.438114 5.710397 
0.643822 53.263180 0.284868 -8.842041 2.955846 7.079994 23.279779 -0.950627 -1.824340 4.421134 1.249302 -2.881256 -1.538303 8.120180 -0.577699 6.918615 -5.864349 7.745331 -15.832668 -11.497995 -0.609050 -63.502781 15.711532 -28.025900 -27.659458 -5.000000 25.327261 -16.212925 0.857687 12.630153 13.965116 16.591095 -0.882394 58.168419 -14.476815 -26.473726 29.489721 5.000000 24.874849 11.327229 -30.000000 2.288095 14.768380 11.256129 4.316806 6.584533 -5.776844 -0.936319 -12.416673 2.079401 -4.062256 21.700029 -8.396095 -5.582682 -2.622519 2.329123 -0.097382 -7.261216 -22.475824 5.689985 
0.645768 53.263313 0.285751 -8.840331 2.965475 7.089746 23.270454 -0.956009 -1.836612 4.420921 1.249295 -2.881254 -1.558032 8.139491 -0.580619 6.936893 -5.903600 7.706472 -15.859950 -11.490907 -0.599339 -63.515827 15.724366 -28.043749 -27.665653 -5.000000 25.334415 -16.213345 0.849507 12.602025 13.965273 16.600847 -0.882900 58.170219 -14.490221 -26.476553 29.496387 5.000000 24.880407 11.265907 -30.000000 2.317585 14.762213 11.247953 4.314319 6.596246 -5.778548 -0.927483 -12.425431 2.114383 -4.044413 21.706507 -8.407546 -5.594892 -2.640856 2.337867 -0.098862 -7.258928 -22.476685 5.689012 
0.647616 53.263306 0.287357 -8.829358 2.975166 7.089747 23.260687 -0.956009 -1.836612 4.421248 1.239535 -2.881254 -1.579046 8.147687 -0.591637 6.933246 -5.922818 7.717191 -15.850079 -11.481156 -0.598835 -63.540287 15.706252 -28.040604 -27.661467 -5.000000 25.317514 -16.248081 0.828422 12.609684 13.965273 16.600847 -0.882900 58.172852 -14.495330 -26.484482 29.498983 5.000000 24.872278 11.226790 -30.000000 2.350869 14.743571 11.239126 4.281953 6.593792 -5.766695 -0.917298 -12.395242 2.146100 -4.017463 21.707201 -8.407717 -5.614830 -2.640858 2.337864 -0.098862 -7.253396 -22.478647 5.690775 
0.649506 53.263306 0.289190 -8.829358 2.975166 7.089747 23.251091 -0.977936 -1.834827 4.431342 1.229775 -2.881255 -1.598576 8.147687 -0.591637 6.929898 -5.932221 7.736617 -15.840209 -11.471402 -0.598332 -63.555790 15.692734 -28.037449 -27.659777 -5.000000 25.292309 -16.292223 0.812218 12.626465 13.967939 16.588737 -0.891476 58.184509 -14.496082 -26.497292 29.498985 5.000000 24.872280 11.187515 -30.000000 2.400530 14.744990 11.221004 4.268163 6.594343 -5.766302 -0.907531 -12.394635 2.156708 -4.033830 21.701645 -8.425911 -5.660267 -2.625563 2.341573 -0.078403 -7.266386 -22.411129 5.706855 
0.650658 53.263412 0.291046 -8.828660 2.984920 7.079995 23.241171 -0.981750 -1.825667 4.441527 1.229789 -2.861728 -1.608443 8.157342 -0.593097 6.928884 -5.932084 7.746328 -15.840105 -11.461652 -0.597828 -63.573700 15.683549 -28.040091 -27.657934 -5.000000 25.284578 -16.315516 0.795433 12.622231 13.955193 16.581345 -0.881889 58.197311 -14.477158 -26.483885 29.505871 5.000000 24.860722 11.180787 -30.000000 2.408933 14.753331 11.210470 4.276535 6.597964 -5.762379 -0.897592 -12.394899 2.152514 -4.025088 21.700954 -8.425746 -5.640330 -2.625266 2.341316 -0.088158 -7.261767 -22.419468 5.727253 
0.651022 53.263691 0.292983 -8.829169 2.984983 7.070242 23.231543 -0.994673 -1.820095 4.442268 1.220043 -2.842201 -1.608544 8.166998 -0.594557 6.941609 -5.902918 7.756043 -15.841903 -11.449233 -0.606532 -63.581936 15.687698 -28.038429 -27.678158 -5.000000 25.287447 -16.335096 0.788715 12.584476 13.915817 16.561838 -0.878094 58.212254 -14.460278 -26.444433 29.517725 5.000000 24.850023 11.165915 -30.000000 2.413406 14.750218 11.198766 4.294607 6.593063 -5.768021 -0.897869 -12.414738 2.143731 -4.029480 21.700212 -8.424734 -5.610176 -2.644008 2.321922 -0.059180 -7.255691 -22.471254 5.705436 
0.651820 53.263493 0.294695 -8.821622 2.975417 7.050738 23.211983 -0.989127 -1.807008 4.442684 1.220056 -2.812909 -1.608646 8.176652 -0.596017 6.953019 -5.883429 7.765756 -15.851670 -11.449232 -0.606531 -63.593288 15.687440 -28.049513 -27.684853 -5.000000 25.296032 -16.354416 0.787471 12.565467 13.886208 16.542336 -0.877086 58.220825 -14.452871 -26.412907 29.525494 5.000000 24.822790 11.175005 -30.000000 2.396204 14.757269 11.206405 4.326720 6.587102 -5.759463 -0.916119 -12.405189 2.132883 -4.045932 21.693117 -8.436046 -5.542863 -2.655080 2.322296 -0.089102 -7.244988 -22.481701 5.723822 
0.653633 53.262318 0.295997 -8.820606 2.975291 7.070242 23.202110 -0.988638 -1.807220 4.432502 1.220043 -2.842201 -1.577862 8.168457 -0.584999 6.972550 -5.883430 7.765755 -15.832351 -11.468740 -0.607539 -63.584335 15.692034 -28.049515 -27.682350 -5.000000 25.304340 -16.349806 0.816779 12.597517 13.908239 16.520487 -0.887944 58.229042 -14.456824 -26.410259 29.517305 5.000000 24.792564 11.203901 -30.000000 2.391600 14.760397 11.218090 4.308646 6.587337 -5.789011 -0.917274 -12.415834 2.117388 -4.021161 21.699934 -8.444717 -5.535571 -2.661813 2.329426 -0.089912 -7.239780 -22.486816 5.731369 
0.656004 53.260780 0.297076 -8.810334 2.975229 7.079995 23.192657 -0.984502 -1.816080 4.412347 1.220022 -2.871492 -1.538699 8.158802 -0.583539 6.998185 -5.902645 7.775468 -15.813138 -11.497998 -0.609050 -63.567150 15.692475 -28.048529 -27.668812 -5.000000 25.307354 -16.345163 0.846082 12.629711 13.927612 16.510733 -0.887438 58.236446 -14.469081 -26.402527 29.516676 5.000000 24.752207 11.244677 -30.000000 2.384364 14.745214 11.221112 4.288074 6.578722 -5.798858 -0.916781 -12.405038 2.145370 -4.017794 21.699932 -8.444719 -5.535572 -2.669221 2.336987 -0.071211 -7.231978 -22.522655 5.727532 
0.658551 53.260113 0.298227 -8.819592 2.975166 7.089747 23.182571 -0.966360 -1.808868 4.402254 1.229782 -2.871491 -1.519069 8.149147 -0.582079 7.024825 -5.921996 7.775465 -15.801670 -11.520164 -0.600850 -63.567150 15.692475 -28.048529 -27.666313 -5.000000 25.315659 -16.346804 0.845174 12.660537 13.946828 16.491226 -0.886426 58.235626 -14.477380 -26.397446 29.515142 5.000000 24.727533 11.285658 -30.000000 2.360782 14.758653 11.236052 4.292573 6.569101 -5.809583 -0.926078 -12.415439 2.129729 -4.014879 21.720917 -8.445147 -5.535612 -2.682331 2.349851 -0.101685 -7.249211 -22.513180 5.717141 
0.661356 53.260151 0.299411 -8.828151 2.984857 7.089748 23.192335 -0.962930 -1.818011 4.393023 1.220029 -2.861728 -1.499438 8.139491 -0.580619 7.060920 -5.951161 7.765750 -15.784159 -11.527259 -0.610562 -63.576096 15.687886 -28.051170 -27.650267 -5.000000 25.329700 -16.347429 0.800019 12.683468 13.946671 16.481476 -0.885921 58.232193 -14.480580 -26.381983 29.522871 5.000000 24.700306 11.337788 -30.000000 2.313333 14.771645 11.219117 4.279028 6.589890 -5.800966 -0.917712 -12.403685 2.186683 -3.985847 21.734726 -8.436814 -5.532972 -2.670547 2.318796 -0.099796 -7.240519 -22.516300 5.717646 
0.663763 53.260323 0.300602 -8.848190 2.984920 7.079994 23.202066 -0.950496 -1.823372 4.383466 1.220036 -2.851965 -1.478429 8.131296 -0.569600 7.087258 -5.980328 7.757051 -15.772479 -11.529916 -0.601354 -63.578495 15.692220 -28.059608 -27.640903 -5.000000 25.349613 -16.350147 0.745710 12.708979 13.953476 16.474077 -0.873558 58.232193 -14.480580 -26.381983 29.526335 5.000000 24.676487 11.390330 -30.000000 2.263289 14.779986 11.208559 4.287393 6.593671 -5.766590 -0.927041 -12.414710 2.144641 -4.029007 21.744865 -8.436942 -5.523023 -2.663219 2.311137 -0.118496 -7.255157 -22.521107 5.714205 
0.665184 53.260326 0.301759 -8.847172 2.984793 7.100008 23.182682 -0.946775 -1.832063 4.363935 1.220036 -2.851964 -1.459092 8.150607 -0.572520 7.114635 -6.009635 7.737627 -15.792112 -11.539667 -0.601858 -63.595627 15.722436 -28.090067 -27.644598 -5.000000 25.365072 -16.380917 0.740251 12.701943 13.963243 16.474077 -0.873558 58.234959 -14.515682 -26.385046 29.557619 5.000000 24.645018 11.376511 -30.000000 2.242348 14.803035 11.210871 4.277928 6.573424 -5.775650 -0.896444 -12.426547 2.091186 -4.023550 21.766882 -8.437620 -5.552968 -2.684282 2.332761 -0.101013 -7.249331 -22.516508 5.726267 
0.666072 53.260323 0.302954 -8.844942 2.994357 7.119514 23.173540 -0.957392 -1.857123 4.354377 1.220043 -2.842201 -1.448040 8.161722 -0.564422 7.143350 -6.029268 7.718202 -15.811647 -11.539667 -0.601858 -63.603809 15.757248 -28.117886 -27.657484 -5.000000 25.375380 -16.413740 0.725635 12.697639 13.973008 16.474075 -0.873558 58.235928 -14.537383 -26.382811 29.579639 5.000000 24.616112 11.351304 -30.000000 2.221455 14.791227 11.209581 4.257771 6.572569 -5.776873 -0.886757 -12.426020 2.099768 -4.040938 21.767927 -8.435011 -5.553404 -2.682104 2.320368 -0.100462 -7.262297 -22.541674 5.713109 
0.666625 53.260323 0.304349 -8.844942 2.994357 7.119514 23.163774 -0.957427 -1.856968 4.344611 1.220043 -2.842201 -1.438370 8.171379 -0.565883 7.173678 -6.029406 7.708492 -15.811647 -11.539667 -0.601858 -63.612045 15.761387 -28.113588 -27.654980 -5.000000 25.386406 -16.416153 0.708206 12.672134 13.973008 16.474075 -0.873558 58.246754 -14.546445 -26.388117 29.595739 5.000000 24.602028 11.326551 -30.000000 2.208134 14.793387 11.190828 4.263652 6.578445 -5.770135 -0.886426 -12.435615 2.109862 -4.024904 21.780153 -8.435651 -5.603270 -2.679844 2.308650 -0.090167 -7.262784 -22.521568 5.722934 
0.666747 53.260326 0.306000 -8.853496 3.004047 7.119514 23.154186 -0.979382 -1.855012 4.345027 1.220056 -2.842206 -1.448233 8.181032 -0.567343 7.196872 -6.010190 7.698782 -15.792008 -11.529916 -0.601354 -63.604839 15.748398 -28.088263 -27.626579 -5.000000 25.427248 -16.385971 0.699911 12.632426 13.962932 16.454575 -0.872550 58.273045 -14.541727 -26.390398 29.603228 5.000000 24.630829 11.302919 -30.000000 2.178297 14.799555 11.199025 4.266135 6.593062 -5.768019 -0.897869 -12.445624 2.098017 -4.041716 21.793070 -8.436453 -5.673076 -2.679849 2.308646 -0.090167 -7.256842 -22.451042 5.743850 
0.666779 53.260330 0.307469 -8.853496 3.004047 7.119514 23.154327 -0.992297 -1.849606 4.345235 1.220063 -2.842208 -1.459386 8.179572 -0.576901 7.209269 -5.990834 7.697762 -15.762712 -11.529916 -0.601354 -63.594524 15.739814 -28.047544 -27.619703 -5.000000 25.436132 -16.355900 0.688908 12.583220 13.943246 16.444822 -0.872046 58.291115 -14.533046 -26.395294 29.604025 5.000000 24.654051 11.261611 -30.000000 2.164414 14.799782 11.199128 4.286045 6.588822 -5.772650 -0.906870 -12.436250 2.088573 -4.035737 21.805286 -8.437081 -5.722943 -2.679765 2.309350 -0.080423 -7.251413 -22.396730 5.750450 
